<?xml version="1.0" encoding="UTF-8"?>
<svg id="b" data-name="Layer 2" xmlns="http://www.w3.org/2000/svg" viewBox="0 0 764.21 101.99">
  <g id="c" data-name="Layer 1">
    <g>
      <path d="M0,51c0-7.77,1.36-14.79,4.08-21.05,2.72-6.27,6.41-11.63,11.07-16.1,4.66-4.47,10.1-7.89,16.32-10.27,6.21-2.38,12.82-3.57,19.82-3.57,5.54,0,10.47.54,14.79,1.6,4.32,1.07,8.04,2.28,11.15,3.64,3.59,1.55,6.7,3.26,9.32,5.1l-15.3,26.96c-1.55-1.17-3.26-2.28-5.1-3.35-1.65-.78-3.62-1.53-5.9-2.26-2.28-.73-4.88-1.09-7.79-1.09s-5.78.54-8.31,1.6c-2.53,1.07-4.73,2.53-6.63,4.37-1.89,1.85-3.38,4.01-4.44,6.48-1.07,2.48-1.6,5.12-1.6,7.94s.56,5.46,1.68,7.94c1.12,2.48,2.65,4.64,4.59,6.48,1.94,1.85,4.23,3.3,6.85,4.37,2.62,1.07,5.49,1.6,8.6,1.6s5.88-.39,8.31-1.17c2.43-.78,4.47-1.65,6.12-2.62,1.94-1.07,3.64-2.33,5.1-3.79l15.3,26.96c-2.62,2.14-5.73,4.03-9.32,5.68-3.11,1.36-6.85,2.62-11.22,3.79s-9.38,1.75-15.01,1.75c-7.58,0-14.57-1.24-20.98-3.71-6.41-2.48-11.95-5.95-16.61-10.42-4.66-4.47-8.31-9.83-10.93-16.1-2.62-6.27-3.93-13.19-3.93-20.76Z"/>
      <path d="M80.72,51c0-6.99,1.33-13.6,4.01-19.82,2.67-6.21,6.31-11.63,10.93-16.25,4.61-4.61,10.03-8.25,16.25-10.93,6.22-2.67,12.82-4.01,19.82-4.01s13.6,1.34,19.82,4.01c6.22,2.67,11.63,6.32,16.25,10.93,4.61,4.62,8.25,10.03,10.93,16.25,2.67,6.22,4.01,12.82,4.01,19.82s-1.34,13.6-4.01,19.82c-2.67,6.22-6.31,11.63-10.93,16.25-4.61,4.62-10.03,8.26-16.25,10.93-6.22,2.67-12.82,4.01-19.82,4.01s-13.6-1.34-19.82-4.01c-6.22-2.67-11.63-6.31-16.25-10.93-4.61-4.61-8.26-10.03-10.93-16.25-2.67-6.21-4.01-12.82-4.01-19.82ZM111.32,51c0,2.82.53,5.46,1.6,7.94,1.07,2.48,2.52,4.64,4.37,6.48,1.84,1.85,4.01,3.3,6.48,4.37,2.48,1.07,5.12,1.6,7.94,1.6s5.46-.53,7.94-1.6c2.48-1.07,4.64-2.52,6.48-4.37s3.3-4.01,4.37-6.48c1.07-2.48,1.6-5.12,1.6-7.94s-.54-5.46-1.6-7.94c-1.07-2.48-2.53-4.64-4.37-6.48-1.85-1.84-4.01-3.3-6.48-4.37-2.48-1.07-5.12-1.6-7.94-1.6s-5.46.54-7.94,1.6c-2.48,1.07-4.64,2.53-6.48,4.37-1.85,1.85-3.3,4.01-4.37,6.48-1.07,2.48-1.6,5.12-1.6,7.94Z"/>
      <path d="M190.72,2.33h25.64l25.35,37.3,25.21-37.3h25.64v97.18h-31.03v-34.97l-19.82,29.14-19.96-29.14v34.97h-31.03V2.33Z"/>
      <path d="M378.39,39.34c0,6.7-1.17,12.41-3.5,17.12-2.33,4.71-5.51,8.52-9.54,11.44-4.03,2.91-8.74,5.05-14.13,6.41-5.39,1.36-11.2,2.04-17.41,2.04v23.17h-31.03V2.33h31.03c6.21,0,12.02.68,17.41,2.04,5.39,1.36,10.1,3.5,14.13,6.41,4.03,2.91,7.21,6.73,9.54,11.44,2.33,4.71,3.5,10.42,3.5,17.12ZM333.8,50.12h1.31c4.08,0,7.02-.95,8.81-2.84,1.8-1.89,2.7-4.54,2.7-7.94s-.9-6.05-2.7-7.94c-1.8-1.89-4.74-2.84-8.81-2.84h-1.31v21.56Z"/>
      <path d="M385.67,2.33h33.51c6.21,0,11.97.83,17.27,2.48,5.29,1.65,9.88,4.08,13.77,7.29,3.88,3.21,6.92,7.17,9.11,11.88,2.19,4.71,3.28,10.13,3.28,16.25,0,4.86-.68,8.99-2.04,12.38-1.36,3.4-2.87,6.22-4.52,8.45-1.94,2.53-4.13,4.66-6.56,6.41l18.21,32.05h-36.43l-14.57-24.62v24.62h-31.03V2.33ZM416.71,50.12h1.6c3.69,0,6.82-.82,9.4-2.48,2.57-1.65,3.86-4.42,3.86-8.3s-1.29-6.65-3.86-8.31c-2.58-1.65-5.71-2.48-9.4-2.48h-1.6v21.56Z"/>
      <path d="M470.62,2.33h57.26v25.5h-26.23v10.78h25.79v24.19h-25.79v11.22h27.25v25.5h-58.28V2.33Z"/>
      <path d="M533.56,69.35c2.14.68,4.37,1.22,6.7,1.6,1.94.49,4.15.87,6.63,1.17,2.48.29,4.98.44,7.5.44,4.47,0,6.7-1.65,6.7-4.95,0-1.26-.68-2.55-2.04-3.86-1.36-1.31-3.08-2.77-5.17-4.37-2.09-1.6-4.32-3.37-6.7-5.32-2.38-1.94-4.61-4.18-6.7-6.7-2.09-2.52-3.81-5.37-5.17-8.52-1.36-3.15-2.04-6.77-2.04-10.85,0-4.57.82-8.6,2.48-12.09,1.65-3.5,3.93-6.41,6.85-8.74,2.91-2.33,6.34-4.1,10.27-5.32,3.93-1.21,8.13-1.82,12.6-1.82,2.33,0,4.66.12,6.99.36,2.33.24,4.42.46,6.27.66,2.14.29,4.23.58,6.27.87v27.25c-.78-.1-1.65-.19-2.62-.29-.78-.1-1.65-.19-2.62-.29-.97-.1-1.99-.15-3.06-.15-.58,0-1.31.02-2.19.07-.87.05-1.7.17-2.48.36-.78.2-1.46.54-2.04,1.02-.58.49-.87,1.17-.87,2.04,0,.78.66,1.75,1.97,2.91s2.91,2.53,4.81,4.08c1.89,1.55,3.98,3.35,6.26,5.39,2.28,2.04,4.37,4.37,6.27,6.99,1.89,2.62,3.5,5.59,4.81,8.89,1.31,3.3,1.97,6.99,1.97,11.07s-.68,8.28-2.04,12.02c-1.36,3.74-3.47,6.99-6.34,9.76-2.87,2.77-6.53,4.95-11,6.56-4.47,1.6-9.76,2.4-15.88,2.4-3.69,0-7.12-.17-10.27-.51-3.16-.34-5.95-.75-8.38-1.24-2.82-.49-5.39-1.07-7.72-1.75v-29.14Z"/>
      <path d="M598.4,69.35c2.14.68,4.37,1.22,6.7,1.6,1.94.49,4.15.87,6.63,1.17,2.48.29,4.98.44,7.5.44,4.47,0,6.7-1.65,6.7-4.95,0-1.26-.68-2.55-2.04-3.86-1.36-1.31-3.08-2.77-5.17-4.37-2.09-1.6-4.32-3.37-6.7-5.32-2.38-1.94-4.61-4.18-6.7-6.7-2.09-2.52-3.81-5.37-5.17-8.52-1.36-3.15-2.04-6.77-2.04-10.85,0-4.57.82-8.6,2.48-12.09,1.65-3.5,3.93-6.41,6.85-8.74,2.91-2.33,6.34-4.1,10.27-5.32,3.93-1.21,8.13-1.82,12.6-1.82,2.33,0,4.66.12,6.99.36,2.33.24,4.42.46,6.27.66,2.14.29,4.23.58,6.27.87v27.25c-.78-.1-1.65-.19-2.62-.29-.78-.1-1.65-.19-2.62-.29-.97-.1-1.99-.15-3.06-.15-.58,0-1.31.02-2.19.07-.87.05-1.7.17-2.48.36-.78.2-1.46.54-2.04,1.02-.58.49-.87,1.17-.87,2.04,0,.78.66,1.75,1.97,2.91s2.91,2.53,4.81,4.08c1.89,1.55,3.98,3.35,6.26,5.39,2.28,2.04,4.37,4.37,6.27,6.99,1.89,2.62,3.5,5.59,4.81,8.89,1.31,3.3,1.97,6.99,1.97,11.07s-.68,8.28-2.04,12.02c-1.36,3.74-3.47,6.99-6.34,9.76-2.87,2.77-6.53,4.95-11,6.56-4.47,1.6-9.76,2.4-15.88,2.4-3.69,0-7.12-.17-10.27-.51-3.16-.34-5.95-.75-8.38-1.24-2.82-.49-5.39-1.07-7.72-1.75v-29.14Z"/>
      <path d="M662.22,51c0-6.99,1.33-13.6,4.01-19.82,2.67-6.21,6.31-11.63,10.93-16.25s10.03-8.25,16.25-10.93c6.21-2.67,12.82-4.01,19.82-4.01s13.6,1.34,19.82,4.01c6.21,2.67,11.63,6.32,16.25,10.93,4.61,4.62,8.25,10.03,10.93,16.25,2.67,6.22,4.01,12.82,4.01,19.82s-1.34,13.6-4.01,19.82c-2.67,6.22-6.32,11.63-10.93,16.25-4.61,4.62-10.03,8.26-16.25,10.93-6.22,2.67-12.82,4.01-19.82,4.01s-13.6-1.34-19.82-4.01c-6.22-2.67-11.63-6.31-16.25-10.93-4.62-4.61-8.26-10.03-10.93-16.25-2.67-6.21-4.01-12.82-4.01-19.82ZM692.81,51c0,2.82.53,5.46,1.6,7.94,1.07,2.48,2.52,4.64,4.37,6.48,1.84,1.85,4.01,3.3,6.48,4.37,2.48,1.07,5.12,1.6,7.94,1.6s5.46-.53,7.94-1.6c2.48-1.07,4.64-2.52,6.48-4.37,1.84-1.84,3.3-4.01,4.37-6.48,1.07-2.48,1.6-5.12,1.6-7.94s-.53-5.46-1.6-7.94c-1.07-2.48-2.53-4.64-4.37-6.48-1.85-1.84-4.01-3.3-6.48-4.37-2.48-1.07-5.12-1.6-7.94-1.6s-5.46.54-7.94,1.6c-2.48,1.07-4.64,2.53-6.48,4.37-1.85,1.85-3.3,4.01-4.37,6.48-1.07,2.48-1.6,5.12-1.6,7.94Z"/>
    </g>
  </g>
</svg>